<?xml version="1.0" standalone="no"?>
<!DOCTYPE svg PUBLIC "-//W3C//DTD SVG 20010904//EN"
 "http://www.w3.org/TR/2001/REC-SVG-20010904/DTD/svg10.dtd">
<svg version="1.0" xmlns="http://www.w3.org/2000/svg"
 width="856.000000pt" height="855.000000pt" viewBox="0 0 856.000000 855.000000"
 preserveAspectRatio="xMidYMid meet">

<g transform="translate(0.000000,855.000000) scale(0.100000,-0.100000)"
fill="#000000" stroke="none">
<path d="M4120 7239 c0 -5 -5 -7 -12 -3 -8 5 -9 2 -5 -9 3 -9 1 -19 -5 -23 -6
-4 -8 -3 -4 4 13 21 -12 21 -40 0 -16 -13 -25 -16 -20 -8 6 12 5 12 -6 0 -7
-9 -29 -22 -48 -30 -19 -8 -38 -19 -42 -25 -4 -6 -25 -17 -48 -25 -22 -7 -40
-17 -40 -22 0 -4 -15 -16 -34 -25 -112 -59 -186 -100 -286 -158 -69 -40 -122
-70 -180 -101 -19 -11 -37 -22 -40 -25 -3 -3 -20 -14 -37 -23 -29 -15 -33 -21
-33 -59 0 -37 7 -49 59 -104 72 -77 71 -77 198 -22 24 11 49 19 56 19 8 0 17
3 21 8 4 4 11 7 14 7 4 1 16 6 27 12 11 6 37 14 58 18 20 4 37 11 37 15 0 4
21 13 48 20 26 8 63 22 82 32 19 10 42 18 50 18 9 0 32 9 53 19 20 10 49 22
64 26 37 9 75 34 68 45 -3 5 0 12 6 16 7 4 9 3 6 -3 -4 -6 1 -14 10 -17 10 -4
14 -4 10 0 -4 4 1 13 11 20 13 9 19 9 24 1 6 -9 8 -9 8 0 0 7 -9 17 -20 23
-23 12 -27 59 -8 78 9 9 9 12 0 12 -9 0 -12 33 -11 126 1 106 3 125 15 120 10
-4 12 -2 8 6 -5 7 -2 9 8 5 11 -4 15 -1 13 11 -2 9 -4 22 -5 27 0 6 -7 -1 -16
-15 -14 -23 -14 -23 -9 -2 4 12 4 22 1 22 -3 0 -6 -5 -6 -11z m0 -389 c0 -5
-4 -10 -10 -10 -5 0 -10 5 -10 10 0 6 5 10 10 10 6 0 10 -4 10 -10z"/>
<path d="M3045 6676 c-11 -6 -43 -26 -71 -43 -28 -18 -54 -33 -57 -33 -3 0
-34 -19 -69 -42 -35 -23 -75 -49 -90 -58 -15 -8 -56 -32 -92 -53 l-66 -39 2
-1860 c3 -1848 3 -1859 23 -1871 28 -16 46 -15 77 5 14 10 31 18 37 18 7 0 14
7 17 15 4 8 11 15 16 15 6 0 38 22 72 49 34 26 73 54 86 61 14 7 53 35 87 62
34 26 67 48 73 48 6 0 13 7 16 15 4 8 10 15 15 15 5 0 44 27 87 60 44 33 84
60 90 60 6 0 17 8 24 18 7 10 21 21 31 25 16 6 17 67 17 1085 0 1033 1 1080
18 1095 10 10 27 17 38 17 19 0 64 -49 77 -82 3 -10 11 -18 17 -18 6 0 14 -9
18 -20 4 -11 29 -48 55 -83 120 -158 207 -279 207 -286 0 -5 7 -11 15 -15 8
-3 20 -17 25 -31 5 -14 14 -25 19 -25 5 0 11 -8 15 -17 7 -21 24 -47 51 -78
29 -34 39 -47 60 -80 30 -47 67 -90 78 -90 6 0 11 -9 13 -20 2 -11 8 -21 13
-23 6 -2 11 -11 11 -21 0 -11 9 -17 25 -19 26 -2 34 12 13 24 -7 5 -8 3 -3 -6
5 -8 3 -11 -6 -8 -8 3 -13 11 -11 17 1 6 -2 11 -7 11 -4 0 -6 11 -3 25 2 14 9
22 15 18 7 -4 7 2 2 18 -12 34 -13 122 -3 136 6 7 5 20 -1 32 -16 29 -15 641
1 641 6 0 8 3 5 7 -4 3 -2 12 5 20 8 11 7 12 -6 7 -21 -8 -34 25 -15 37 13 8
5 13 -15 10 -5 -1 -3 6 5 15 12 16 12 17 -4 11 -10 -4 -16 -3 -12 3 3 5 -3 18
-15 30 -11 11 -15 20 -9 20 7 0 -1 12 -17 27 -16 15 -33 26 -37 25 -5 -1 -6 2
-2 8 5 8 -86 125 -155 196 -11 12 -20 25 -20 29 0 4 -27 38 -60 75 -33 37 -60
71 -60 75 0 4 -12 19 -26 34 -45 46 -224 259 -224 267 0 4 -11 19 -25 33 -41
44 -135 159 -135 166 0 4 -11 16 -25 27 -14 11 -25 24 -25 29 0 17 -139 176
-163 186 -15 7 -28 7 -42 -1z"/>
<path d="M3873 6030 c-37 -15 -30 -60 15 -106 20 -22 49 -54 62 -73 14 -19 37
-46 51 -60 14 -14 31 -36 38 -49 7 -14 18 -21 27 -18 7 3 13 2 12 -2 -1 -4 5
-21 15 -38 18 -35 47 -51 58 -33 7 12 2 39 -8 39 -3 0 -3 -7 0 -15 4 -8 1 -17
-5 -21 -7 -5 -9 5 -6 29 2 20 0 34 -4 31 -12 -8 -27 31 -18 46 5 8 6 18 3 23
-4 8 -4 79 0 215 1 12 6 23 12 23 5 1 -3 5 -20 9 -42 11 -206 11 -232 0z m247
-338 c0 -8 -1 -13 -3 -11 -1 2 -9 12 -16 22 -12 15 -12 17 3 11 9 -3 16 -13
16 -22z"/>
<path d="M4110 5389 c0 -5 5 -7 10 -4 6 3 10 8 10 11 0 2 -4 4 -10 4 -5 0 -10
-5 -10 -11z"/>
<path d="M930 4180 c0 -5 5 -10 10 -10 6 0 10 5 10 10 0 6 -4 10 -10 10 -5 0
-10 -4 -10 -10z"/>
<path d="M3180 2349 c0 -5 9 -14 20 -21 19 -12 20 -24 20 -239 0 -216 1 -227
19 -232 11 -3 23 -2 26 2 4 3 49 6 101 6 92 0 95 1 123 30 40 44 55 96 48 176
-6 76 -20 105 -54 114 -13 3 -23 10 -23 15 0 15 -62 12 -90 -5 -43 -25 -51
-28 -57 -22 -3 4 -5 47 -4 97 l2 91 -65 -2 c-37 -1 -66 -6 -66 -10z m235 -197
c21 -17 23 -25 21 -124 -1 -89 -4 -109 -20 -127 -24 -26 -60 -27 -86 -1 -17
17 -20 33 -20 123 0 90 3 106 20 125 25 27 54 28 85 4z"/>
<path d="M3634 2338 c24 -34 23 -433 -1 -460 -15 -17 -13 -18 66 -18 l82 0
-21 22 c-19 21 -20 34 -20 250 l0 228 -61 0 -60 0 15 -22z"/>
<path d="M2313 2316 c15 -12 17 -35 17 -225 0 -181 -2 -211 -15 -211 -8 0 -15
-4 -15 -10 0 -6 27 -10 62 -10 l61 0 -21 23 c-21 22 -22 33 -22 170 0 80 4
148 9 152 5 3 21 -18 36 -47 15 -29 39 -76 54 -105 16 -29 26 -55 23 -58 -3
-3 0 -5 6 -5 6 0 16 -16 22 -35 6 -19 21 -42 33 -50 12 -9 21 -18 20 -20 -10
-18 3 -25 42 -25 l45 0 0 210 c0 175 3 215 16 235 l16 24 -64 -1 c-60 0 -62
-1 -40 -15 21 -15 22 -21 22 -164 0 -115 -3 -149 -13 -149 -7 0 -21 25 -32 55
-10 30 -22 55 -26 55 -4 0 -12 12 -18 28 -6 15 -30 63 -54 107 l-43 80 -69 2
c-61 3 -68 1 -52 -11z"/>
<path d="M4248 2312 c23 -18 23 -20 22 -218 0 -193 -1 -199 -23 -216 -21 -17
-19 -18 73 -17 76 0 90 3 73 11 -22 10 -23 17 -23 110 l0 98 85 0 85 0 0 -100
c0 -95 -1 -101 -22 -110 -16 -6 5 -9 72 -9 89 0 94 1 73 16 -23 15 -23 19 -23
218 0 199 0 203 23 218 21 15 17 16 -70 16 -95 1 -110 -3 -70 -18 21 -8 22
-13 19 -100 l-3 -91 -85 0 -84 0 0 85 c0 74 3 87 22 105 l22 20 -95 0 c-92 0
-94 -1 -71 -18z"/>
<path d="M2874 2190 c-53 -23 -81 -60 -90 -116 -10 -69 3 -124 39 -167 27 -32
40 -38 84 -43 28 -4 73 -1 99 5 116 28 153 190 68 290 -21 24 -42 40 -50 37
-8 -3 -14 -1 -14 4 0 17 -92 10 -136 -10z m120 -31 c8 -12 12 -27 10 -34 -3
-7 -1 -16 5 -20 12 -7 15 -147 4 -159 -5 -4 -8 -11 -8 -14 -2 -22 -33 -52 -55
-52 -14 0 -34 10 -45 23 -17 19 -20 37 -20 128 0 91 3 110 19 128 25 27 70 27
90 0z"/>
<path d="M3965 2200 c-4 -6 -9 -9 -13 -6 -17 9 -69 -34 -90 -75 -19 -37 -22
-55 -19 -114 3 -41 9 -71 16 -73 7 -2 16 -14 21 -26 21 -56 211 -60 241 -4 17
31 0 38 -35 14 -67 -45 -156 0 -156 80 l0 34 115 0 c114 0 115 0 115 23 0 13
-3 27 -7 31 -5 4 -13 24 -18 43 -6 20 -19 41 -30 47 -10 6 -25 17 -33 24 -16
14 -98 16 -107 2z m84 -49 c12 -16 21 -43 21 -60 l0 -31 -71 0 -71 0 7 37 c4
21 10 40 14 43 4 3 10 13 14 23 11 29 62 22 86 -12z"/>
<path d="M4835 2182 c-41 -22 -52 -33 -59 -64 -5 -21 -13 -38 -18 -38 -10 0
-11 -107 0 -112 4 -1 15 -19 25 -39 26 -50 57 -64 142 -64 110 0 153 38 162
145 7 77 -10 131 -51 161 -17 13 -34 24 -38 24 -3 0 -10 3 -14 8 -17 16 -100
5 -149 -21z m131 -23 c16 -18 19 -37 19 -129 0 -99 -2 -111 -22 -129 -31 -29
-66 -27 -84 6 -19 36 -20 233 0 256 19 23 64 21 87 -4z"/>
<path d="M5150 2202 c0 -4 9 -13 20 -20 18 -11 20 -23 20 -147 0 -122 -2 -137
-20 -155 l-20 -20 88 1 c70 0 83 2 65 11 -22 11 -23 16 -23 132 0 114 1 123
23 141 l22 20 -22 3 c-15 2 -23 10 -23 23 0 17 -7 19 -65 19 -36 0 -65 -3 -65
-8z"/>
<path d="M5347 2199 c-31 -12 -27 -29 8 -29 37 0 45 -28 45 -164 0 -108 -2
-126 -17 -135 -13 -8 4 -10 67 -11 79 0 83 1 62 16 -21 14 -22 23 -22 129 0
109 1 115 25 140 32 31 75 34 82 5 3 -11 9 -20 14 -20 5 0 9 -51 9 -113 0
-100 -2 -116 -20 -135 l-21 -22 82 0 c79 0 81 1 66 18 -14 15 -17 41 -17 137
0 112 -1 120 -26 152 -16 21 -32 32 -41 29 -8 -3 -11 -1 -8 4 9 15 -47 12 -75
-5 -61 -35 -72 -37 -95 -15 -26 25 -80 33 -118 19z"/>
<path d="M5925 2199 c-4 -6 -13 -8 -21 -5 -8 3 -14 2 -14 -2 0 -4 -13 -15 -29
-25 -18 -10 -32 -29 -36 -47 -4 -16 -11 -32 -16 -35 -12 -8 -12 -115 1 -115 6
0 10 -6 10 -13 0 -36 31 -74 69 -85 72 -22 172 -6 195 31 15 23 -1 34 -27 17
-12 -7 -41 -17 -65 -20 -41 -7 -45 -5 -73 29 -19 23 -29 47 -29 68 l0 32 113
3 112 3 -3 44 c-3 53 -30 93 -76 115 -39 18 -102 21 -111 5z m85 -46 c14 -19
20 -38 18 -62 -2 -20 -6 -35 -10 -33 -5 1 -35 2 -68 2 -53 0 -60 2 -60 19 0
11 5 23 11 26 6 4 8 13 5 21 -3 8 -2 14 3 14 5 0 11 9 14 20 8 31 60 27 87 -7z"/>
<path d="M3800 1588 c0 -4 5 -8 10 -8 6 0 10 -59 10 -156 0 -138 -2 -158 -17
-170 -16 -12 -10 -14 45 -12 35 0 58 5 51 9 -7 4 -16 6 -19 4 -3 -2 -4 74 -2
169 l3 172 -41 0 c-22 0 -40 -3 -40 -8z"/>
<path d="M2778 1424 c2 -98 -1 -160 -7 -168 -9 -10 1 -13 41 -15 42 -1 50 1
40 11 -7 7 -12 39 -12 75 0 59 2 63 23 63 39 -1 71 -39 76 -93 3 -34 38 -57
82 -56 24 1 36 3 27 6 -9 2 -22 19 -28 38 -6 19 -14 35 -18 37 -10 4 -42 67
-42 82 0 7 11 19 25 26 35 19 44 73 18 108 -25 33 -48 40 -148 41 l-80 1 3
-156z m148 138 c14 -9 27 -48 28 -85 1 -42 -27 -67 -74 -67 l-40 0 0 73 c0 41
3 77 7 80 9 9 65 9 79 -1z"/>
<path d="M4178 1424 c2 -108 -1 -160 -9 -170 -10 -12 6 -14 105 -14 l116 0 0
40 c0 24 -5 40 -12 40 -6 0 -9 -3 -6 -6 3 -3 -4 -16 -17 -30 -17 -19 -32 -24
-69 -24 l-47 0 3 73 c3 71 3 72 32 75 22 3 34 -3 48 -20 l18 -23 -1 45 c0 35
-2 41 -10 28 -7 -13 -22 -18 -50 -18 l-40 0 3 73 3 72 57 1 c46 1 55 -1 51
-13 -5 -14 12 -32 30 -33 4 0 7 14 7 30 l0 30 -107 0 -108 0 3 -156z"/>
<path d="M4820 1536 c0 -13 -5 -26 -11 -28 -8 -3 -11 -38 -10 -107 2 -90 5
-108 24 -132 16 -21 29 -28 51 -26 35 2 46 22 16 30 -18 5 -20 13 -20 101 l0
96 31 0 c20 0 29 4 26 13 -2 6 -16 12 -30 12 -24 -1 -27 3 -27 32 0 29 -3 33
-25 33 -20 0 -25 -5 -25 -24z"/>
<path d="M5380 1536 c0 -12 -7 -32 -16 -44 -8 -12 -10 -22 -5 -22 7 0 11 -34
11 -92 1 -73 4 -97 18 -113 21 -25 68 -30 88 -11 12 13 10 15 -13 18 l-28 3
-3 98 -3 97 31 0 c35 0 38 24 4 26 -10 1 -24 2 -30 3 -6 1 -9 14 -6 30 3 25 1
29 -22 29 -20 0 -26 -6 -26 -22z"/>
<path d="M3235 1491 c-3 -6 -14 -11 -24 -11 -53 0 -90 -112 -57 -174 19 -36
67 -66 104 -66 15 0 45 14 66 30 44 33 43 38 0 15 -32 -16 -72 -19 -92 -6 -8
4 -16 27 -19 50 l-6 41 82 0 c78 0 81 1 81 23 0 23 -20 57 -50 86 -19 19 -75
26 -85 12z m62 -59 c14 -50 8 -55 -53 -50 -40 3 -45 12 -31 51 4 9 9 24 12 33
3 10 14 14 32 12 23 -2 29 -10 40 -46z"/>
<path d="M3545 1490 c-3 -6 5 -10 18 -10 28 0 37 -16 37 -65 0 -31 -2 -33 -47
-40 -58 -8 -83 -21 -83 -40 0 -8 -4 -15 -9 -15 -14 0 -7 -25 13 -53 14 -17 28
-24 50 -24 38 2 54 20 23 27 -32 8 -36 63 -5 84 37 26 58 21 58 -15 0 -17 -4
-39 -10 -49 -8 -15 -6 -17 10 -13 15 4 20 0 20 -16 0 -18 6 -21 37 -21 29 0
34 3 25 12 -8 8 -12 47 -12 109 0 94 -1 97 -27 115 -31 20 -89 28 -98 14z"/>
<path d="M4574 1489 c-3 -5 -14 -9 -24 -9 -18 0 -43 -31 -45 -55 -2 -14 36
-55 51 -55 7 0 19 -6 26 -13 7 -7 21 -16 31 -20 19 -7 24 -56 6 -74 -16 -16
-57 -3 -78 23 -24 31 -41 30 -41 -1 0 -16 6 -25 15 -25 8 0 15 -4 15 -10 0 -5
23 -10 50 -10 28 0 50 5 50 10 0 6 9 10 20 10 38 0 55 74 23 102 -19 16 -54
32 -64 30 -15 -3 -40 38 -37 60 4 32 56 37 83 8 25 -28 37 -25 33 8 -3 25 -6
27 -56 28 -29 1 -55 -3 -58 -7z"/>
<path d="M5107 1488 c-7 -5 -2 -8 14 -8 30 0 53 -34 47 -70 -3 -24 -21 -32
-93 -46 -37 -6 -43 -12 -51 -51 -5 -24 -1 -35 17 -52 26 -24 74 -28 83 -6 4
10 -1 15 -14 15 -21 0 -37 38 -26 65 7 20 51 39 70 32 21 -8 20 -56 -1 -80
-17 -19 -17 -19 5 -13 18 6 22 4 22 -13 0 -18 6 -21 43 -21 33 1 38 3 25 11
-15 8 -18 25 -18 108 0 87 -2 100 -21 117 -21 19 -79 26 -102 12z"/>
<path d="M5680 1489 c0 -5 -8 -9 -17 -9 -10 -1 -29 -10 -43 -21 -22 -19 -25
-29 -25 -88 0 -71 5 -80 57 -114 40 -25 79 -21 118 13 19 16 29 29 23 30 -7 0
-13 -4 -13 -10 0 -12 -63 -24 -89 -15 -12 3 -21 13 -21 21 0 8 -4 14 -8 14 -5
0 -7 14 -4 30 l4 30 79 0 c72 0 79 2 79 19 0 11 -5 23 -10 26 -6 4 -8 11 -5
16 4 5 -1 12 -9 15 -9 3 -14 10 -11 14 3 5 -4 11 -15 15 -11 3 -20 10 -20 14
0 4 -16 7 -35 8 -19 0 -35 -3 -35 -8z m60 -35 c6 -14 10 -36 10 -50 0 -22 -4
-24 -43 -24 -24 0 -46 3 -50 6 -3 3 -1 20 5 37 5 18 11 38 14 45 2 6 15 12 29
12 18 0 28 -7 35 -26z"/>
<path d="M3483 1473 c-21 -8 -16 -43 6 -43 15 0 19 6 16 20 -2 11 0 18 5 15 5
-3 11 -1 15 5 6 10 -20 12 -42 3z"/>
<path d="M5043 1473 c-20 -7 -16 -43 5 -43 23 0 45 46 23 47 -9 0 -22 -2 -28
-4z"/>
</g>
</svg>
